<?xml version="1.0" encoding="utf-8"?>
<!-- Svg Vector Icons : http://www.sfont.cn -->
<!DOCTYPE svg PUBLIC "-//W3C//DTD SVG 1.1//EN" "http://www.w3.org/Graphics/SVG/1.1/DTD/svg11.dtd">
<svg version="1.1" xmlns="http://www.w3.org/2000/svg" xmlns:xlink="http://www.w3.org/1999/xlink" x="0px" y="0px" viewBox="0 0 1000 1000" enable-background="new 0 0 1000 1000" xml:space="preserve">
<metadata> Svg Vector Icons : http://www.sfont.cn </metadata>
<g><path d="M377.5,500c0,67.7,54.8,122.5,122.5,122.5S622.5,567.7,622.5,500S567.7,377.5,500,377.5S377.5,432.3,377.5,500z"/><path d="M990,546v-94.8L856.2,411c-8.9-35.8-23-69.4-41.6-100.2L879,186L812,119L689,185.2c-30.8-18.5-64.4-32.6-100.2-41.5L545.9,10h-94.8L411,143.8c-35.8,8.9-69.5,23-100.2,41.5L186.1,121l-67,66.9L185.2,311c-18.6,30.8-32.6,64.4-41.5,100.3L10,454v94.8L143.8,589c8.9,35.8,23,69.4,41.6,100.2L121,814l67,67l123-66.2c30.8,18.6,64.5,32.6,100.3,41.5L454,990h94.8L589,856.2c35.8-8.9,69.4-23,100.2-41.6L814,879l67-67l-66.2-123.1c18.6-30.7,32.6-64.4,41.5-100.2L990,546z M500,745c-135.3,0-245-109.7-245-245c0-135.3,109.7-245,245-245s245,109.7,245,245C745,635.3,635.3,745,500,745z"/></g>
</svg>